<?xml version="1.0" encoding="UTF-8" standalone="no"?><!DOCTYPE svg PUBLIC "-//W3C//DTD SVG 1.1//EN" "http://www.w3.org/Graphics/SVG/1.1/DTD/svg11.dtd"><svg width="100%" height="100%" viewBox="0 0 417 359" version="1.1" xmlns="http://www.w3.org/2000/svg" xmlns:xlink="http://www.w3.org/1999/xlink" xml:space="preserve" xmlns:serif="http://www.serif.com/" style="fill-rule:evenodd;clip-rule:evenodd;stroke-linejoin:round;stroke-miterlimit:2;"><path d="M376.828,14.322c-30.64,-8.76 -48.982,-3.505 -49.762,-3.278c-1.392,0.422 -2.476,1.514 -2.879,2.925l-14.697,51.2l-227.323,-65.004c-2.263,-0.648 -4.621,0.667 -5.274,2.934l-11.672,40.703l-12.497,-13.572c-1.17,-1.265 -2.979,-1.719 -4.58,-1.116c-1.619,0.567 -2.725,2.059 -2.825,3.773l-5.831,100.609l-39.324,137.098c-0.644,2.267 0.666,4.63 2.929,5.283l27.697,7.917l-1.55,26.849c-0.118,2.032 1.206,3.814 3.065,4.354c0.304,0.086 0.626,0.136 0.948,0.149l133.72,7.586l112.185,32.083c48.77,13.939 55.939,-11.065 59.789,-24.51l66.88,-233.14l9.854,-34.359c4.87,-16.977 -8.335,-39.75 -38.853,-48.484Zm-338.819,292.535l15.255,-263.423l32.304,35.103l-9.545,8.52c-1.769,1.574 -1.918,4.272 -0.349,6.031c0.557,0.635 1.251,1.052 2.004,1.261c1.365,0.39 2.893,0.095 4.022,-0.916l9.654,-8.616l10.933,11.871l-9.604,8.571c-1.769,1.573 -1.918,4.271 -0.349,6.026c0.562,0.635 1.256,1.052 2.004,1.265c1.356,0.39 2.898,0.091 4.022,-0.916l9.709,-8.665l10.937,11.885l-9.654,8.607c-1.764,1.573 -1.914,4.276 -0.349,6.035c0.567,0.626 1.26,1.043 2.004,1.261c1.36,0.39 2.893,0.095 4.027,-0.921l9.745,-8.702l10.937,11.876l-9.7,8.657c-1.768,1.564 -1.918,4.271 -0.344,6.026c0.553,0.635 1.251,1.048 2,1.265c1.365,0.39 2.884,0.096 4.022,-0.92l9.799,-8.752l10.937,11.885l-9.753,8.693c-1.755,1.565 -1.914,4.272 -0.35,6.031c0.558,0.626 1.261,1.043 2.005,1.252c1.365,0.385 2.893,0.095 4.026,-0.912l9.845,-8.792l10.937,11.885l-9.799,8.738c-1.764,1.573 -1.909,4.272 -0.345,6.035c0.563,0.626 1.257,1.039 2,1.257c1.365,0.39 2.898,0.095 4.022,-0.916l9.895,-8.834l10.937,11.872l-9.84,8.788c-1.759,1.569 -1.913,4.267 -0.349,6.026c0.558,0.635 1.261,1.043 2.004,1.261c1.365,0.385 2.893,0.095 4.022,-0.916l9.949,-8.874l10.933,11.88l-9.881,8.815c-1.768,1.574 -1.913,4.272 -0.349,6.027c0.558,0.626 1.261,1.047 1.995,1.265c1.365,0.385 2.898,0.091 4.027,-0.925l9.985,-8.901l10.929,11.871l-9.936,8.861c-1.759,1.573 -1.922,4.271 -0.349,6.031c0.558,0.639 1.252,1.052 2,1.26c1.365,0.386 2.888,0.096 4.027,-0.916l10.039,-8.965l10.928,11.881l-9.976,8.91c-1.773,1.574 -1.913,4.268 -0.344,6.022c0.553,0.631 1.256,1.043 2,1.266c1.364,0.394 2.897,0.095 4.022,-0.926l10.085,-8.992l11.599,12.602l-5.913,20.632c-0.435,1.497 -0.018,3.107 1.084,4.195c1.097,1.102 2.707,1.51 4.212,1.074c0.114,-0.027 8.757,-2.317 23.716,-0.807l33.479,36.359l-271.939,-15.427Zm298.285,1.787c-5.637,-11.151 -17.758,-21.553 -36.191,-26.822c-19.784,-5.655 -34.449,-5.474 -42.557,-4.571l74.141,-258.494c5.414,-0.957 20.578,-2.571 42.788,3.773c27.969,8.004 36.145,26.999 32.998,37.927l-71.179,248.187Zm-147.732,-48.579l-84.42,-91.703c-1.184,-1.274 -2.975,-1.714 -4.576,-1.12c-1.628,0.571 -2.739,2.059 -2.834,3.773l-5.015,86.637c-0.109,2.032 1.211,3.814 3.083,4.349c0.3,0.091 0.622,0.145 0.939,0.15l89.436,5.078c1.732,0.1 3.355,-0.857 4.103,-2.43c0.744,-1.583 0.458,-3.447 -0.716,-4.734Zm-157.826,1.161c-0.639,2.262 -3.006,3.573 -5.274,2.929c-2.267,-0.653 -3.577,-3.016 -2.929,-5.287l4.652,-16.207c0.649,-2.258 3.016,-3.578 5.274,-2.929c2.272,0.644 3.578,3.006 2.929,5.278l-4.652,16.216Zm120.329,-3.383c-0.652,2.272 -3.02,3.573 -5.287,2.934c-2.263,-0.653 -3.578,-3.011 -2.92,-5.283l2.476,-8.616l-19.367,-5.541l-2.476,8.62c-0.658,2.267 -3.016,3.582 -5.274,2.929c-2.267,-0.643 -3.578,-3.006 -2.925,-5.269l2.463,-8.629l-13.804,-3.945c-2.267,-0.649 -3.578,-3.011 -2.925,-5.278c0.644,-2.268 3.007,-3.578 5.274,-2.93l13.812,3.945l5.433,-18.954c0.653,-2.263 3.02,-3.573 5.278,-2.929c2.263,0.652 3.578,3.015 2.929,5.287l-5.441,18.95l19.372,5.541l0.902,-3.138c0.649,-2.258 3.007,-3.582 5.278,-2.929c2.268,0.644 3.574,3.006 2.93,5.278l-5.728,19.957Zm-60.454,-236.297c0.648,-2.263 3.01,-3.578 5.278,-2.929l193.037,55.195c2.258,0.657 3.577,3.02 2.924,5.282l-43.064,150.167c-0.658,2.272 -3.02,3.587 -5.292,2.939c-2.258,-0.658 -3.569,-3.02 -2.925,-5.283l9.518,-33.18l-19.367,-5.536l-4.816,16.778c-0.657,2.267 -3.011,3.586 -5.274,2.934c-2.267,-0.649 -3.577,-3.011 -2.933,-5.279l4.815,-16.782l-23.475,-6.711c-2.268,-0.649 -3.578,-3.007 -2.925,-5.279l6.915,-24.114l-19.372,-5.537l-3.369,11.744c-0.653,2.268 -3.02,3.583 -5.287,2.934c-2.263,-0.648 -3.569,-3.006 -2.92,-5.273l3.364,-11.754l-23.462,-6.711c-2.267,-0.649 -3.577,-3.016 -2.929,-5.274l6.915,-24.115l-19.376,-5.546l-2.176,7.596c-0.649,2.267 -3.011,3.587 -5.279,2.938c-2.272,-0.648 -3.577,-3.015 -2.925,-5.283l10.271,-35.827l-19.358,-5.537l-5.586,19.471c-0.649,2.268 -3.011,3.587 -5.283,2.939c-2.267,-0.658 -3.578,-3.02 -2.925,-5.283l5.578,-19.476l-22.642,-6.475c-0.303,-0.018 -0.585,0.013 -0.875,-0.068c-2.267,-0.649 -3.582,-3.016 -2.934,-5.283l8.154,-28.382Zm167.575,143.973l-19.367,-5.537l-5.746,20.007l19.367,5.536l5.746,-20.006Zm-27.58,-7.881l-19.371,-5.537l-5.746,20.002l19.377,5.537l5.74,-20.002Zm35.67,-20.343l-19.376,-5.537l-5.717,20.003l19.376,5.538l5.717,-20.004Zm-27.575,-7.876l-19.381,-5.541l-5.732,20.006l19.367,5.537l5.746,-20.002Zm-27.584,-7.89l-19.363,-5.537l-5.745,20.007l19.367,5.536l5.741,-20.006Zm-27.584,-7.874l-19.372,-5.538l-5.72,20.008l19.371,5.538l5.721,-20.008Zm90.834,-4.588l-19.376,-5.538l-5.722,20.021l19.376,5.538l5.722,-20.021Zm-27.579,-7.884l-19.374,-5.544l-5.729,20.023l19.374,5.544l5.729,-20.023Zm-27.598,-7.884l-19.352,-5.538l-5.728,20.019l19.352,5.538l5.728,-20.019Zm-27.549,-7.884l-19.372,-5.536l-5.745,20.015l19.372,5.542l5.745,-20.021Zm90.827,-4.561l-19.371,-5.542l-5.746,20.012l19.372,5.541l5.745,-20.011Zm-118.42,-3.323l-19.372,-5.538l-5.725,20.026l19.372,5.538l5.725,-20.026Zm90.841,-4.563l-19.372,-5.537l-5.745,20.002l19.385,5.546l5.732,-20.011Zm-27.593,-7.876l-19.37,-5.543l-5.724,20.006l19.369,5.543l5.725,-20.006Zm-27.561,-7.895l-19.372,-5.537l-5.74,20.007l19.371,5.541l5.741,-20.011Zm-27.575,-7.881l-19.376,-5.542l-5.741,20.003l19.386,5.541l5.731,-20.002Zm-27.587,-7.898l-19.365,-5.539l-5.724,20.01l19.365,5.54l5.724,-20.011Zm-27.566,-7.87l-19.38,-5.541l-5.723,20.017l19.38,5.541l5.723,-20.017Z" style="fill:#8d6c7b;fill-opacity:0.12;fill-rule:nonzero;"/></svg>