<?xml version="1.0" encoding="UTF-8" standalone="no"?><!DOCTYPE svg PUBLIC "-//W3C//DTD SVG 1.1//EN" "http://www.w3.org/Graphics/SVG/1.1/DTD/svg11.dtd"><svg width="100%" height="100%" viewBox="0 0 351 365" version="1.1" xmlns="http://www.w3.org/2000/svg" xmlns:xlink="http://www.w3.org/1999/xlink" xml:space="preserve" xmlns:serif="http://www.serif.com/" style="fill-rule:evenodd;clip-rule:evenodd;stroke-linejoin:round;stroke-miterlimit:2;"><path d="M268.302,312.275l-69.52,26.965c-4.802,1.862 -7.181,7.263 -5.32,12.061c1.861,4.797 7.259,7.181 12.061,5.319l8.733,-3.387c4.035,8.986 14.434,13.35 23.726,9.746l17.384,-6.743c9.292,-3.604 14.024,-13.837 10.946,-23.19l8.737,-3.389c4.797,-1.861 7.18,-7.263 5.319,-12.061c-1.861,-4.797 -7.265,-7.184 -12.066,-5.321Zm-10.465,-26.979l-69.52,26.965c-4.801,1.862 -7.182,7.259 -5.321,12.057c1.861,4.797 7.259,7.181 12.061,5.319l69.52,-26.965c4.798,-1.861 7.18,-7.263 5.32,-12.061c-1.861,-4.798 -7.258,-7.178 -12.06,-5.315Zm-119.808,-205.785c-46.624,18.084 -71.599,71.587 -53.676,118.729c17.201,44.348 55.841,49.163 89.058,98.945c2.858,4.281 8.865,6.367 13.662,4.506l64.552,-25.038c4.794,-1.859 7.827,-7.451 7.051,-12.54c-9.035,-59.162 16.255,-88.774 -0.946,-133.121c-18.556,-46.897 -73.073,-69.567 -119.701,-51.481Zm-48.681,191.095l-26.286,32.693c-2.418,3.008 -1.94,7.408 1.069,9.829c3.008,2.422 7.412,1.943 9.828,-1.068l26.287,-32.689c2.418,-3.007 1.939,-7.411 -1.068,-9.829c-3.008,-2.422 -7.412,-1.943 -9.83,1.064Zm254.934,-76.385l-41.452,-6.419c-3.817,-0.589 -7.384,2.024 -7.978,5.839c-0.589,3.817 2.025,7.388 5.839,7.978l41.454,6.414c3.816,0.598 7.388,-2.025 7.974,-5.837c0.591,-3.813 -2.016,-7.387 -5.837,-7.975Zm-282.152,24.706c-1.396,-3.597 -5.446,-5.387 -9.047,-3.99l-39.104,15.167c-3.597,1.395 -5.386,5.446 -3.99,9.047c1.397,3.601 5.446,5.387 9.047,3.99l39.107,-15.169c3.598,-1.395 5.383,-5.444 3.987,-9.045Zm269.049,-111.857l-39.107,15.169c-3.597,1.395 -5.387,5.445 -3.99,9.047c1.397,3.601 5.45,5.385 9.047,3.99l39.107,-15.169c3.601,-1.397 5.387,-5.446 3.99,-9.047c-1.395,-3.597 -5.446,-5.387 -9.047,-3.99Zm-70.313,-27.47l26.286,-32.693c2.422,-3.008 1.938,-7.411 -1.069,-9.828c-3.008,-2.422 -7.412,-1.943 -9.83,1.064l-26.285,32.693c-2.418,3.007 -1.939,7.411 1.069,9.833c3.007,2.418 7.411,1.938 9.829,-1.069Zm-254.943,76.385l41.454,6.414c3.814,0.594 7.384,-2.024 7.978,-5.839c0.587,-3.812 -2.025,-7.388 -5.842,-7.977l-41.452,-6.42c-3.813,-0.59 -7.388,2.026 -7.979,5.839c-0.587,3.821 2.029,7.396 5.841,7.983Zm187.722,-100.629c3.812,0.586 7.387,-2.03 7.977,-5.843l6.42,-41.451c0.585,-3.816 -2.027,-7.393 -5.843,-7.978c-3.81,-0.595 -7.389,2.022 -7.976,5.834l-6.422,41.457c-0.586,3.812 2.024,7.384 5.844,7.981Zm-122.804,44.884c3.008,2.422 7.411,1.939 9.829,-1.068c2.417,-3.007 1.94,-7.407 -1.069,-9.829l-32.691,-26.282c-3.007,-2.417 -7.411,-1.938 -9.829,1.069c-2.418,3.007 -1.939,7.411 1.068,9.829l32.692,26.281Zm60.445,-38.113c3.598,-1.395 5.387,-5.446 3.991,-9.047l-15.168,-39.103c-1.396,-3.601 -5.449,-5.385 -9.046,-3.99c-3.598,1.395 -5.387,5.446 -3.991,9.047l15.169,39.107c1.395,3.597 5.448,5.381 9.045,3.986Z" style="fill:#8d6c7b;fill-opacity:0.12;fill-rule:nonzero;"/></svg>