<?xml version="1.0" encoding="UTF-8" standalone="no"?><!DOCTYPE svg PUBLIC "-//W3C//DTD SVG 1.1//EN" "http://www.w3.org/Graphics/SVG/1.1/DTD/svg11.dtd"><svg width="100%" height="100%" viewBox="0 0 2067 2067" version="1.1" xmlns="http://www.w3.org/2000/svg" xmlns:xlink="http://www.w3.org/1999/xlink" xml:space="preserve" xmlns:serif="http://www.serif.com/" style="fill-rule:evenodd;clip-rule:evenodd;stroke-linejoin:round;stroke-miterlimit:2;"><circle cx="1033.33" cy="1033.33" r="1033.33" style="fill:#000035;"/><path d="M547.932,872.998l-318.333,-489.166c198.333,-246.667 495.833,-382.5 800,-383.75c176.25,-1.25 356.25,43.75 520,138.333c180.833,105 318.333,255.833 405.833,429.167l-855.417,-45c-242.083,-14.167 -472.5,122.083 -552.083,350.416Zm137.083,160.417c0,192.5 155.834,348.333 348.334,348.333c192.5,0 348.333,-155.833 348.333,-348.333c-0,-192.5 -155.833,-348.333 -348.333,-348.333c-192.5,-0 -348.334,155.416 -348.334,348.333Zm1312.08,-371.667l-582.084,30c157.917,184.584 160.417,450.834 27.5,655l-467.083,718.334c193.75,10.416 393.333,-32.084 574.167,-137.084c447.5,-258.333 628.75,-800 447.5,-1266.25Zm-1440,570l-388.75,-764.583c-106.25,162.5 -168.334,357.5 -168.334,566.25c0,516.667 378.334,944.583 872.917,1020.42l265.417,-520c-240,45 -471.667,-86.667 -581.25,-302.084Z" style="fill:#bbb74c;fill-rule:nonzero;"/></svg>