<?xml version="1.0" encoding="UTF-8" standalone="no"?><!DOCTYPE svg PUBLIC "-//W3C//DTD SVG 1.1//EN" "http://www.w3.org/Graphics/SVG/1.1/DTD/svg11.dtd"><svg width="100%" height="100%" viewBox="0 0 419 384" version="1.1" xmlns="http://www.w3.org/2000/svg" xmlns:xlink="http://www.w3.org/1999/xlink" xml:space="preserve" xmlns:serif="http://www.serif.com/" style="fill-rule:evenodd;clip-rule:evenodd;stroke-linejoin:round;stroke-miterlimit:2;"><path d="M46.87,180.452l-15,-7.917c-5.833,-2.917 -12.5,-0.833 -15.833,5l-8.334,15.833c-2.916,5.834 -0.833,12.5 5,15.834l15,7.916c-4.166,14.584 -5.416,30 -3.333,45l-16.25,5c-6.25,2.084 -9.583,8.334 -7.5,14.584l5.417,17.083c1.666,6.25 8.333,9.583 14.166,7.5l16.25,-5c7.084,12.917 17.084,25 29.167,34.583l-7.917,15.417c-2.916,5.833 -0.833,12.5 5,15.833l15.834,8.334c5.833,2.916 12.5,0.833 15.833,-5l7.917,-15.417c14.583,4.167 30,5.417 44.583,3.75l5.417,16.667c2.083,6.25 8.333,9.583 14.583,7.5l17.083,-5.417c6.25,-2.083 9.584,-8.333 7.5,-14.583l-5.416,-17.084c12.916,-7.083 24.583,-16.666 34.166,-28.75l15.834,8.334c5.833,2.916 12.5,0.833 15.833,-5l8.333,-15.834c2.917,-5.833 0.834,-12.5 -5,-15.833l-15.833,-8.333c4.583,-14.584 5.417,-30 3.75,-44.584l17.083,-5.416c6.25,-2.084 9.584,-8.334 7.5,-14.584l-5.416,-17.083c-2.084,-6.25 -8.334,-9.583 -14.584,-7.5l-16.666,5.417c-7.084,-12.917 -16.667,-25 -28.75,-34.584l7.916,-15.416c2.917,-5.834 0.834,-12.5 -5,-15.834l-15.833,-8.333c-5.833,-2.917 -12.5,-0.833 -15.833,5l-7.917,15.417c-15,-4.584 -30,-5.834 -45,-4.167l-5,-16.25c-2.083,-6.25 -8.333,-9.583 -14.583,-7.5l-17.084,5.417c-6.25,2.083 -9.583,8.333 -7.5,14.583l5,16.25c-12.916,7.083 -25,17.083 -34.583,29.167Zm74.583,90c-12.083,-6.25 -17.083,-21.25 -10.833,-33.75c6.25,-12.084 21.25,-17.084 33.75,-10.834c12.083,6.25 17.083,21.25 10.833,33.75c-6.666,12.5 -21.666,17.084 -33.75,10.834Zm81.25,-50.417c8.334,19.583 7.917,42.5 -2.5,62.5c-10.416,20.417 -29.583,33.75 -50.416,38.333l-0.834,-23.333c12.917,-4.167 23.75,-12.917 30.417,-25.833c6.667,-12.5 7.5,-26.667 3.333,-39.584l20,-12.083Zm-34.583,-37.083c7.5,3.75 13.75,8.75 19.167,14.166l-19.584,12.5c-3.333,-2.916 -7.083,-5.416 -11.25,-7.916c-21.25,-11.25 -46.666,-5.834 -62.5,10.833l-18.75,-9.583c22.084,-27.5 60.834,-36.667 92.917,-20Zm-105,44.583l18.75,9.583c-5,22.5 5.833,46.25 27.083,57.5c4.167,2.084 8.334,3.75 12.5,4.584l0.834,22.916c-7.5,-1.25 -15,-3.75 -22.084,-7.5c-32.5,-16.666 -47.083,-53.75 -37.083,-87.083Zm156.25,-150.417c-4.583,-0.416 -8.75,2.917 -9.167,7.5l-1.25,12.917c-0.416,4.583 2.917,8.75 7.5,9.167l12.084,1.25c1.25,10.833 4.166,21.25 9.583,30.833l-9.167,7.917c-3.333,2.916 -4.166,8.333 -0.833,11.666l8.333,10c2.917,3.334 8.334,4.167 11.667,0.834l9.167,-7.917c8.75,7.083 18.333,12.083 28.75,15l-1.25,12.083c-0.417,4.584 2.916,8.75 7.5,9.167l12.916,1.25c4.584,0.417 8.75,-2.917 9.167,-7.5l1.25,-12.5c10.833,-1.25 21.25,-4.583 30.833,-10l7.917,9.583c2.917,3.334 8.333,4.167 11.667,0.834l10,-8.334c3.333,-2.916 4.166,-8.333 0.833,-11.666l-7.917,-9.584c7.084,-8.75 12.084,-18.333 14.584,-28.75l12.5,1.25c4.583,0.417 8.75,-2.916 9.166,-7.5l1.25,-12.916c0.417,-4.584 -2.916,-8.75 -7.5,-9.167l-12.5,-1.25c-1.25,-10.417 -4.166,-20.833 -9.583,-30.833l9.583,-8.334c3.334,-2.916 4.167,-8.333 0.834,-11.666l-8.334,-10c-2.916,-3.334 -8.333,-4.167 -11.666,-0.834l-9.584,8.334c-8.75,-7.084 -18.333,-12.084 -28.333,-15l1.25,-12.5c0.417,-4.584 -2.917,-8.75 -7.5,-9.167l-12.917,-1.25c-4.583,-0.417 -8.75,2.917 -9.166,7.5l-1.25,12.5c-10.834,1.25 -21.25,4.167 -30.834,9.583l-7.916,-8.75c-2.917,-3.333 -8.334,-4.166 -11.667,-0.833l-10,8.333c-3.333,2.917 -4.167,8.334 -0.833,11.667l7.916,9.583c-7.083,8.75 -12.083,18.334 -15,28.75l-12.083,-1.25Zm61.25,-10.416c18.333,-15.417 45.417,-12.917 60.833,5.416c15.417,18.334 12.917,45.417 -5.416,60.834c-18.334,15.416 -45.417,12.916 -60.834,-5.417c-15.416,-18.75 -12.916,-45.833 5.417,-60.833Z" style="fill:#8d6c7b;fill-opacity:0.12;fill-rule:nonzero;"/><path d="M276.788,264.387c-3.483,-0.317 -6.649,2.217 -6.966,5.7l-0.95,9.816c-0.316,3.483 2.217,6.649 5.7,6.966l9.182,0.95c0.95,8.233 3.167,16.149 7.283,23.432l-6.966,6.016c-2.533,2.216 -3.166,6.333 -0.633,8.866l6.333,7.599c2.216,2.533 6.333,3.167 8.866,0.634l6.966,-6.017c6.65,5.383 13.932,9.183 21.848,11.4l-0.949,9.182c-0.317,3.483 2.216,6.65 5.699,6.966l9.816,0.95c3.483,0.317 6.65,-2.216 6.966,-5.699l0.95,-9.5c8.233,-0.95 16.149,-3.483 23.432,-7.599l6.016,7.283c2.217,2.533 6.333,3.166 8.866,0.633l7.6,-6.333c2.533,-2.216 3.166,-6.333 0.633,-8.866l-6.016,-7.283c5.383,-6.649 9.182,-13.932 11.082,-21.848l9.5,0.95c3.483,0.316 6.649,-2.217 6.966,-5.7l0.95,-9.816c0.316,-3.483 -2.217,-6.649 -5.7,-6.966l-9.499,-0.95c-0.95,-7.916 -3.167,-15.832 -7.283,-23.432l7.283,-6.333c2.533,-2.216 3.166,-6.332 0.633,-8.866l-6.333,-7.599c-2.216,-2.533 -6.333,-3.167 -8.866,-0.633l-7.283,6.332c-6.649,-5.382 -13.932,-9.182 -21.531,-11.399l0.949,-9.499c0.317,-3.483 -2.216,-6.65 -5.699,-6.966l-9.816,-0.95c-3.483,-0.317 -6.65,2.216 -6.966,5.699l-0.95,9.5c-8.233,0.95 -16.149,3.166 -23.432,7.283l-6.016,-6.65c-2.217,-2.533 -6.333,-3.166 -8.866,-0.633l-7.6,6.333c-2.533,2.216 -3.166,6.333 -0.633,8.866l6.016,7.283c-5.383,6.649 -9.182,13.932 -11.399,21.848l-9.183,-0.95Zm46.547,-7.916c13.932,-11.716 34.514,-9.816 46.23,4.116c11.716,13.933 9.816,34.515 -4.116,46.23c-13.933,11.716 -34.514,9.816 -46.23,-4.116c-11.716,-14.249 -9.816,-34.831 4.116,-46.23Z" style="fill:#8d6c7b;fill-opacity:0.12;fill-rule:nonzero;"/></svg>