<?xml version="1.0" encoding="UTF-8" standalone="no"?><!DOCTYPE svg PUBLIC "-//W3C//DTD SVG 1.1//EN" "http://www.w3.org/Graphics/SVG/1.1/DTD/svg11.dtd"><svg width="100%" height="100%" viewBox="0 0 2067 2134" version="1.1" xmlns="http://www.w3.org/2000/svg" xmlns:xlink="http://www.w3.org/1999/xlink" xml:space="preserve" xmlns:serif="http://www.serif.com/" style="fill-rule:evenodd;clip-rule:evenodd;stroke-linejoin:round;stroke-miterlimit:2;"><path d="M1223.32,83.814c19.627,-18.688 105.49,-97.494 141.791,-81.747c5.855,2.539 12.562,6.193 16.038,11.545c10.971,16.893 4.955,17.99 16.02,40.583c18.962,38.718 52.953,88.79 64,104.748c357.057,162.804 605.494,522.99 605.494,940.743c-0,570.313 -463.021,1033.33 -1033.33,1033.33c-570.312,-0 -1033.33,-463.021 -1033.33,-1033.33c0,-570.312 463.021,-1033.33 1033.33,-1033.33c64.902,0 128.414,5.996 189.991,17.461Zm181.799,51.55c-45.248,-17.481 -92.07,-31.873 -140.167,-42.905c26.045,-21.27 54.379,-41.152 85.169,-59.189l-0.417,0.583l1.25,-0.708c0.628,-0.166 1.289,-0.166 1.917,-0c1.36,0.172 2.368,1.381 2.292,2.75c3.502,13.898 8.591,27.347 15.166,40.083c3.459,7.125 7.042,14.167 11.209,21.042c7.724,13.23 15.651,25.812 23.581,38.344Z" style="fill:#000035;"/><path d="M510.958,547.561c0.667,0.042 0.334,0.042 0,0Zm1464.25,188.959c-44.208,-106.25 -133.666,-220.834 -203.916,-257.209c57.166,112.042 90.291,224.5 102.916,308.334c0,-0 0,0.583 0.209,1.708c-114.917,-286.458 -309.792,-401.958 -468.959,-653.458c-8.041,-12.709 -16.083,-25.459 -23.916,-38.875c-4.167,-6.875 -7.75,-13.917 -11.209,-21.042c-6.575,-12.736 -11.664,-26.185 -15.166,-40.083c0.076,-1.369 -0.932,-2.578 -2.292,-2.75c-0.628,-0.166 -1.289,-0.166 -1.917,-0l-0.5,0.291l-0.75,0.417l0.417,-0.583c-225.958,132.375 -319.667,364.083 -343.75,511.583c-69.81,3.967 -138.197,21.413 -201.375,51.375c-11.841,5.875 -17.425,19.881 -12.875,32.292c4.58,13.228 19.224,20.352 32.458,15.791l2.167,-0.875c55.132,-26.039 114.635,-41.582 175.458,-45.833l5.917,-0.417c8.333,-0.5 16.667,-0.833 25,-0.916c49.395,-0.402 98.588,6.363 146.042,20.083c2.791,0.833 5.5,1.75 8.333,2.625c7.875,2.375 15.667,5 23.417,7.792c5.666,2.083 11.291,4.166 16.875,6.583c4.541,1.833 9.083,3.667 13.541,5.625c7,3.139 13.945,6.403 20.834,9.792c3.125,1.541 6.25,3.083 9.375,4.708c6.666,3.5 13.25,7.153 19.75,10.958c4.194,2.417 8.361,4.917 12.5,7.5c73.618,45.549 134.72,108.756 177.75,183.875c-54.167,-38.125 -151.459,-75.791 -245.084,-59.5c365.584,182.75 267.417,812.084 -239.125,788.334c-45.109,-1.845 -89.688,-10.44 -132.25,-25.5c-10.083,-3.792 -20,-7.875 -29.833,-12.209c-5.75,-2.625 -11.5,-5.291 -17.167,-8.333c-124.333,-63.917 -226.833,-185.083 -239.625,-332.292c0,0 46.875,-174.791 335.917,-174.791c31.25,-0 120.542,-87.167 122.208,-112.5c-0.375,-8.334 -177.25,-78.625 -246.208,-146.584c-36.875,-36.291 -54.375,-53.791 -69.875,-66.916c-8.38,-7.118 -17.158,-13.754 -26.292,-19.875c-23.176,-81.063 -24.169,-166.881 -2.875,-248.459c-104.416,47.542 -185.625,122.709 -244.625,189.042l-0.5,0c-40.291,-51.042 -37.5,-219.375 -35.125,-254.5c-0.5,-2.208 -30.083,15.333 -33.958,17.958c-35.547,25.403 -68.786,53.889 -99.333,85.125c-34.731,35.26 -66.465,73.35 -94.875,113.875c-65.359,92.616 -111.713,197.277 -136.375,307.917c-0.25,1.125 -9.709,42.542 -16.667,93.667c-1.167,7.972 -2.25,15.944 -3.25,23.916c-2.375,15.375 -4.167,32.125 -6,58.334c-0,1 -0,2 -0.208,3c-0.75,11.291 -1.417,22.541 -2.042,33.833l-0,5.167c-0,561.25 455.042,1016.21 1016.33,1016.21c502.667,0 920.084,-364.917 1001.79,-844.25c1.708,-13 3.083,-26.083 4.625,-39.208c20.208,-174.292 -2.25,-357.459 -65.917,-510.625l0,-0.125Z" style="fill:#bbb74c;fill-rule:nonzero;"/></svg>