<?xml version="1.0" encoding="UTF-8" standalone="no"?><!DOCTYPE svg PUBLIC "-//W3C//DTD SVG 1.1//EN" "http://www.w3.org/Graphics/SVG/1.1/DTD/svg11.dtd"><svg width="100%" height="100%" viewBox="0 0 2067 2063" version="1.1" xmlns="http://www.w3.org/2000/svg" xmlns:xlink="http://www.w3.org/1999/xlink" xml:space="preserve" xmlns:serif="http://www.serif.com/" style="fill-rule:evenodd;clip-rule:evenodd;stroke-linejoin:round;stroke-miterlimit:2;"><ellipse cx="1033.33" cy="1031.25" rx="1033.33" ry="1031.25" style="fill:#000035;"/><path d="M691.25,1622.5c0,8.333 -9.583,15 -21.667,15c-13.75,1.25 -23.333,-5.417 -23.333,-15c0,-8.333 9.583,-15 21.667,-15c12.5,-1.25 23.333,5.417 23.333,15Zm-129.583,-18.75c-2.917,8.333 5.416,17.917 17.916,20.417c10.834,4.166 23.334,-0 25.834,-8.334c2.5,-8.333 -5.417,-17.916 -17.917,-21.666c-10.833,-2.917 -22.917,1.25 -25.833,9.583Zm184.166,-7.083c-12.083,2.916 -20.416,10.833 -19.166,20.416c1.25,8.334 12.083,13.75 24.583,10.834c12.083,-2.917 20.417,-10.834 19.167,-19.167c-1.25,-7.917 -12.5,-13.333 -24.584,-12.083Zm274.167,-1596.67c-577.917,0 -1020,438.75 -1020,1016.67c-0,462.083 290.833,857.5 706.25,996.666c53.333,9.584 72.083,-23.333 72.083,-50.416c0,-25.834 -1.25,-168.334 -1.25,-255.834c0,0 -291.666,62.5 -352.916,-124.166c-0,-0 -47.5,-121.25 -115.834,-152.5c0,-0 -95.416,-65.417 6.667,-64.167c-0,0 103.75,8.333 160.833,107.5c91.25,160.833 244.167,114.583 303.75,87.083c9.584,-66.666 36.667,-112.916 66.667,-140.416c-232.917,-25.834 -467.917,-59.584 -467.917,-460.417c0,-114.583 31.667,-172.083 98.334,-245.417c-10.834,-27.083 -46.25,-138.75 10.833,-282.916c87.083,-27.084 287.5,112.5 287.5,112.5c83.333,-23.334 172.917,-35.417 261.667,-35.417c88.75,-0 178.333,12.083 261.666,35.417c0,-0 200.417,-140 287.5,-112.5c57.084,144.583 21.667,255.833 10.834,282.916c66.666,73.75 107.5,131.25 107.5,245.417c-0,402.083 -245.417,434.167 -478.334,460.417c38.334,32.916 70.834,95.416 70.834,193.333c-0,140.417 -1.25,314.167 -1.25,348.333c-0,27.084 19.166,60 72.083,50.417c416.667,-138.333 699.167,-533.75 699.167,-995.833c-0,-577.917 -468.75,-1016.67 -1046.67,-1016.67Zm-615,1437.08c-5.417,4.167 -4.167,13.75 2.917,21.667c6.666,6.667 16.25,9.583 21.666,4.167c5.417,-4.167 4.167,-13.75 -2.916,-21.667c-6.667,-6.667 -16.25,-9.583 -21.667,-4.167Zm-45,-33.75c-2.917,5.417 1.25,12.084 9.583,16.25c6.667,4.167 15,2.917 17.917,-2.916c2.917,-5.417 -1.25,-12.084 -9.583,-16.25c-8.334,-2.5 -15,-1.25 -17.917,2.916Zm135,148.334c-6.667,5.416 -4.167,17.916 5.417,25.833c9.583,9.583 21.666,10.833 27.083,4.167c5.417,-5.417 2.917,-17.917 -5.417,-25.834c-9.166,-9.583 -21.666,-10.833 -27.083,-4.166Zm-47.5,-61.25c-6.667,4.166 -6.667,15 -0,24.583c6.667,9.583 17.917,13.75 23.333,9.583c6.667,-5.416 6.667,-16.25 0,-25.833c-5.833,-9.583 -16.666,-13.75 -23.333,-8.333Z" style="fill:#bbb74c;fill-rule:nonzero;"/></svg>