<svg
  xmlns="http://www.w3.org/2000/svg"
  xml:space="preserve"
  style="
    fill-rule: evenodd;
    clip-rule: evenodd;
    stroke-linejoin: round;
    stroke-miterlimit: 2;
  "
  viewBox="0 0 9094 3636"
>
  <path
    d="M5316.91 1138.18c-4.531 1.775-51.441 19.119-86.233-9.096a782.884 782.884 0 0 0-54.687-1.906c-6.806 0-13.589.082-20.347.374-.72.031-1.441.056-2.161.074-195.578 5.045-371.976-116.944-436.285-301.715l-.044-.127C4602.585 495.468 4288.53 258.08 3919.465 258.08c-157.863 0-305.668 43.408-432.095 118.961-180.587 107.937-411.869 76.171-556.833-76.595-103.568-108.434-249.524-176.047-411.154-176.047-207.094 0-388.441 110.995-488.01 276.572-85.669 143.118-243.552 227.039-410.121 217.972l.062.003a767.568 767.568 0 0 0-41.335-1.112c-9.843 0-19.642.187-29.007.466-170.009 6.104-328.887-84.302-410.649-233.852-85.475-154.943-250.408-260.049-439.719-260.049-276.923 0-501.75 224.827-501.75 501.75 0 276.924 224.827 501.75 501.75 501.75 4.861 0 9.676.258 12.953.639a131.585 131.585 0 0 1 85.909 44.101c24.983 28.438 36.508 66.257 31.664 103.547-4.043 31.616-6.126 63.878-6.126 96.622 0 25.554 1.268 50.816 3.566 75.383 18.729 183.481-76.559 359.789-240.337 444.639l-.336.173c-275.093 141.459-463.498 428.139-463.498 758.498 0 470.369 381.88 852.25 852.25 852.25 266.996 0 505.462-123.086 661.519-315.594 136.871-169.181 375.246-216.076 565.903-111.405 163.173 89.388 350.427 140.184 549.451 140.184 179.555 0 349.531-41.337 500.863-115.112l.205-.1c205.594-99.761 453.317-29.446 575.792 163.372 94.205 148.07 259.721 246.452 448.056 246.452 292.835 0 530.581-237.746 530.581-530.581 0-3.931.099-7.823.34-11.687a309 309 0 0 1 96.139-212.52 309.004 309.004 0 0 1 228.979-84.372 785.979 785.979 0 0 0 41.513 1.095c233.516 0 442.975-103.785 584.684-267.726 124.495-144.42 326.551-194.605 504.151-125.215 73.701 28.705 153.858 44.422 237.659 44.422 68.705 0 124.4 55.696 124.4 124.4v56.063c0 313.814 254.777 568.591 568.591 568.591 313.813 0 568.59-254.777 568.59-568.591 0-11.042.629-21.81 2.981-32.49a180.713 180.713 0 0 1 183.095-148.148c3.817.117 7.648.175 11.493.175 19.57 0 38.781-1.515 57.472-4.753a182.473 182.473 0 0 1 148.778 40.907 182.472 182.472 0 0 1 64.244 138.992v.007c0 203.283 165.04 368.323 368.323 368.323s368.323-165.04 368.323-368.323-165.04-368.323-368.323-368.323c-19.57 0-38.781 1.516-57.472 4.754a182.475 182.475 0 0 1-213.022-179.9v-.006c0-25.131-2.508-49.679-7.34-73.53a134.46 134.46 0 0 1 131.729-161.365h.011c77.113 0 139.719-62.606 139.719-139.719s-62.606-139.719-139.719-139.719c-8.465 0-16.778-.34-25.011-1.539a220.703 220.703 0 0 1-195.521-227.984c.368-8.866.553-17.779.553-26.735 0-349.698-283.91-633.608-633.608-633.608-218.614 0-411.489 111.001-525.34 279.672-99.591 148.29-277.537 223.564-453.329 191.736l-.329-.06c-38.686-7.112-78.556-10.82-119.288-10.82-4.112 0-8.217-.093-12.226-.324-149.921-.713-289.774-76.201-372.607-201.461l-.036-.053c-65.945-99.833-179.13-165.818-307.625-165.818-203.283 0-368.323 165.04-368.323 368.323.024 175.907-124.4 124.4-124.4 124.4l-.357.142Z"
    style="fill: url(#a)"
  />
  <defs>
    <linearGradient
      id="a"
      x1="0"
      x2="1"
      y1="0"
      y2="0"
      gradientTransform="matrix(0 3496.29 -1398.01 0 811.202 -11.548)"
      gradientUnits="userSpaceOnUse"
    >
      <stop offset="0" style="stop-color: #fff; stop-opacity: 0.33" />
      <stop offset="1" style="stop-color: #ebebeb; stop-opacity: 0.07" />
    </linearGradient>
  </defs>
</svg>
