<svg viewBox="0 0 1867 1867" xmlns="http://www.w3.org/2000/svg" fill-rule="evenodd" clip-rule="evenodd" stroke-linejoin="round" stroke-miterlimit="2"><path d="M0 0v1866.67h1866.67V0H0zm1015.83 1455.83c0 181.667-106.666 264.584-262.083 264.584-140.417 0-221.667-72.5-263.333-160.417l142.916-86.25c27.5 48.75 52.5 90 112.917 90 57.5 0 94.167-22.5 94.167-110.417V857.08h175.416v598.75zm415 264.584c-162.916 0-268.333-77.5-319.583-179.167l142.917-82.5c37.5 61.25 86.666 106.667 172.916 106.667 72.5 0 119.167-36.25 119.167-86.667 0-60-47.5-81.25-127.917-116.667l-43.75-18.75c-126.666-53.75-210.416-121.666-210.416-264.583 0-131.667 100.416-231.667 256.666-231.667 111.667 0 191.667 38.75 249.167 140.417l-136.667 87.5c-30-53.75-62.5-75-112.916-75-51.25 0-83.75 32.5-83.75 75 0 52.5 32.5 73.75 107.916 106.667l43.75 18.75c149.167 63.75 232.917 129.166 232.917 275.833 0 157.5-124.167 244.167-290.417 244.167z" fill="#bbb74c" fill-rule="nonzero"/></svg>