<svg
  xmlns="http://www.w3.org/2000/svg"
  xml:space="preserve"
  style="
    fill-rule: evenodd;
    clip-rule: evenodd;
    stroke-linejoin: round;
    stroke-miterlimit: 2;
  "
  viewBox="0 0 8385 1483"
>
  <path
    d="M3178.7 504.102a21.291 21.291 0 0 0 29.375-19.698c.175-.002.175-.004.175-.006C3208.25 217.051 3425.301 0 3692.648 0c267.346 0 479.482 259.102 484.398 484.398 1.625 74.503 113.481 138.536 164.016 17.35 63.744-152.866 140.855-228.818 278.75-228.818 70.134 0 134.368 25.465 183.951 67.642a392.225 392.225 0 0 0 253.342 92.794l.001.106c113.188 0 218.049 35.931 303.794 97.004 75.792 54.092 171.897 71.215 261.707 46.629l-.054-.2a187.187 187.187 0 0 0 117.948-97.063c77.606-154.562 237.596-260.735 422.187-260.735 233.962 0 428.402 170.561 465.653 394.004 6.241 36.45 32.746 66.136 68.259 76.451.019.07.056.081.092.092 67.397 19.584 140.109 5.157 194.922-38.677 29.47-23.836 66.993-38.04 107.808-38.04 27.384 0 53.287 6.394 76.294 17.769a104.838 104.838 0 0 0 81.867 5.03l-.1-.283a83.676 83.676 0 0 0 53.978-64.208c48.771-277.378 291.091-488.473 582.327-488.473 326.211 0 591.052 264.841 591.052 591.052s-264.841 591.053-591.052 591.053c-3.193 0-6.38-.026-9.562-.076a537.99 537.99 0 0 0-288.485 79.259c-60.126 37.011-130.9 58.38-206.626 58.38-84.197 0-162.272-26.417-226.382-71.407a538.031 538.031 0 0 0-386.419-91.891 293.182 293.182 0 0 1-41.533 2.97c-44.867 0-87.318-10.422-125.064-28.973a538.026 538.026 0 0 0-296.252-52.503 489.142 489.142 0 0 1-50.777 2.657c-33.511 0-66.211-3.499-97.756-10.152a538.021 538.021 0 0 0-277.267 15.123c-30.536 10.109-63.178 15.501-97.07 15.501h-.001a297.586 297.586 0 0 0-229.488 108.135c-96.033 116.44-241.429 190.564-404 190.564-121.683 0-233.743-41.527-322.771-111.175-122.828-96.271-281.403-134.47-434.595-104.69-24.155 4.87-49.135 7.302-74.68 7.302-144.896 0-271.664-78.236-340.326-194.73-39.921-68.226-113.036-110.157-192.084-110.156l-.002-.219c-34.836 0-68.819-3.685-101.578-10.687a537.908 537.908 0 0 0-376.586 57.989c-41.378 23.228-89.081 36.588-139.88 36.588l-.164-.001a538.11 538.11 0 0 0-300.206 91.373c-17.376 11.869-36.1 19.235-55.574 19.235-15.528 0-30.579-2.056-44.896-5.909a537.89 537.89 0 0 0-260.247-4.118c-28.825 6.492-58.807 10.027-89.609 10.027-53.588 0-104.697-10.701-151.303-30.081a537.758 537.758 0 0 0-399.953-4.616c-58.469 22.366-121.919 34.697-188.226 34.697-185.944 0-349.418-96.97-442.555-243.031-18.559-29.084-54.365-42.041-87.238-31.569l.026.082a118.287 118.287 0 0 0-76.489 76.135c-52.494 160.77-203.718 277.122-381.903 277.122-221.543 0-401.408-179.864-401.408-401.407v-.001A376.73 376.73 0 0 0 89 578.794C33.869 522.505.001 445.416.001 360.478c0-172.94 140.406-313.346 313.346-313.346s313.346 140.406 313.346 313.346c0 13.288-.829 26.384-2.438 39.238-2.687 21.391 12.19 41.017 33.511 44.21l.003-.018A145.34 145.34 0 0 0 777.6 407.637c50.411-45.877 117.404-73.82 190.872-73.82h.001a450.765 450.765 0 0 0 285.429-101.883c90.122-73.598 205.221-117.633 330.524-117.633 131.429 0 251.632 48.446 343.709 128.436a538.062 538.062 0 0 0 377.798 131.573c5.955-.384 11.949-.52 17.975-.52 217.869 0 378.865 177.462 394.752 394.752.098 1.343.215 2.654.351 3.936 2.006 18.938 18.486 32.993 37.504 31.984 19.017-1.008 33.918-16.726 33.911-35.771.035-.05.035-.099.035-.149 0-156.823 127.32-284.144 284.143-284.144 36.735 0 71.852 6.986 104.096 19.704Z"
    style="fill: url(#a)"
  />
  
  <defs>
    <linearGradient
      id="a"
      x1="0"
      x2="1"
      y1="0"
      y2="0"
      gradientTransform="matrix(0 1482.46 -237.022 0 55.907 0)"
      gradientUnits="userSpaceOnUse"
    >
      <stop offset="0" style="stop-color: #fff; stop-opacity: 0.15" />
      <stop offset="1" style="stop-color: #ebebeb; stop-opacity: 0.06" />
    </linearGradient>
  </defs>
</svg>
