<?xml version="1.0" encoding="UTF-8" standalone="no"?><!DOCTYPE svg PUBLIC "-//W3C//DTD SVG 1.1//EN" "http://www.w3.org/Graphics/SVG/1.1/DTD/svg11.dtd"><svg width="100%" height="100%" viewBox="0 0 583 834" version="1.1" xmlns="http://www.w3.org/2000/svg" xmlns:xlink="http://www.w3.org/1999/xlink" xml:space="preserve" xmlns:serif="http://www.serif.com/" style="fill-rule:evenodd;clip-rule:evenodd;stroke-linejoin:round;stroke-miterlimit:2;"><g id="mobile.svg" opacity="0.12"><path d="M459.942,769.262c-4.077,29.104 -31.11,52.783 -60.26,52.783l-328.095,-0c-29.133,-0 -49.514,-23.679 -45.437,-52.783l7.405,-52.853l433.792,-0l-7.405,52.853Zm-211.645,-37.719c-20.809,0 -40.107,16.919 -43.021,37.719c-2.914,20.797 11.644,37.716 32.452,37.716c20.83,0 40.145,-16.919 43.058,-37.716c2.916,-20.8 -11.66,-37.719 -32.489,-37.719Zm-8.058,57.513c-10.926,-0 -18.571,-8.88 -17.042,-19.796c1.529,-10.916 11.664,-19.798 22.589,-19.798c10.946,0 18.609,8.882 17.08,19.798c-1.528,10.916 -11.679,19.796 -22.627,19.796Zm229.619,-90.57l-433.792,-0l78.958,-563.585l433.792,0l-78.958,563.585Zm51.715,-521.954c0.693,-4.95 -2.757,-8.96 -7.705,-8.96l-373.077,-0c-4.95,-0 -9.523,4.01 -10.216,8.96l-67.293,480.325c-0.694,4.949 2.755,8.96 7.705,8.96l373.077,0c4.948,0 9.522,-4.011 10.216,-8.96l67.293,-480.325Zm-374.333,8.961l355.156,-0l-64.782,462.403l-355.156,0l64.782,-462.403Zm185.925,438.464l55.17,-0c4.948,-0 9.523,-4.011 10.216,-8.961c0.694,-4.949 -2.757,-8.96 -7.705,-8.96l-55.17,-0c-4.948,-0 -9.523,4.011 -10.216,8.96c-0.694,4.95 2.755,8.961 7.705,8.961Zm-194.692,-0l156.903,-0c4.948,-0 9.523,-4.011 10.216,-8.961c0.694,-4.949 -2.757,-8.96 -7.705,-8.96l-156.903,-0c-4.95,-0 -9.522,4.011 -10.216,8.96c-0.693,4.95 2.757,8.961 7.705,8.961Zm257.926,-57.561l-190.958,0c-4.948,0 -9.523,4.011 -10.216,8.961c-0.694,4.949 2.757,8.96 7.705,8.96l190.959,0c4.948,0 9.522,-4.011 10.216,-8.96c0.693,-4.948 -2.757,-8.961 -7.706,-8.961Zm-252.372,17.921l21.111,0c4.95,0 9.522,-4.011 10.216,-8.96c0.693,-4.95 -2.756,-8.961 -7.705,-8.961l-21.112,0c-4.949,0 -9.522,4.011 -10.215,8.961c-0.694,4.949 2.757,8.96 7.705,8.96Zm257.926,-57.561l-106.036,0c-4.948,0 -9.522,4.011 -10.216,8.961c-0.693,4.95 2.757,8.96 7.705,8.96l106.036,0c4.948,0 9.523,-4.01 10.216,-8.96c0.694,-4.95 -2.757,-8.961 -7.705,-8.961Zm-252.373,17.921l106.004,0c4.948,0 9.522,-4.01 10.216,-8.96c0.693,-4.95 -2.757,-8.961 -7.705,-8.961l-106.004,0c-4.95,0 -9.522,4.011 -10.216,8.961c-0.693,4.95 2.757,8.96 7.705,8.96Zm257.936,-57.629l-71.375,0c-4.948,0 -9.522,4.011 -10.215,8.961c-0.694,4.95 2.757,8.961 7.705,8.961l71.374,-0c4.948,-0 9.523,-4.011 10.216,-8.961c0.694,-4.95 -2.757,-8.961 -7.705,-8.961Zm-252.373,17.922l146.314,-0c4.948,-0 9.522,-4.011 10.216,-8.961c0.693,-4.95 -2.757,-8.961 -7.705,-8.961l-146.314,0c-4.95,0 -9.522,4.011 -10.216,8.961c-0.693,4.95 2.757,8.961 7.705,8.961Zm257.927,-57.561l-124.965,-0c-4.948,-0 -9.522,4.01 -10.216,8.96c-0.693,4.95 2.758,8.961 7.706,8.961l124.964,-0c4.948,-0 9.522,-4.011 10.216,-8.961c0.693,-4.95 -2.757,-8.96 -7.705,-8.96Zm-252.373,17.921l92.622,-0c4.948,-0 9.522,-4.011 10.216,-8.961c0.693,-4.95 -2.758,-8.96 -7.706,-8.96l-92.621,-0c-4.95,-0 -9.523,4.01 -10.216,8.96c-0.694,4.95 2.757,8.961 7.705,8.961Zm265.631,-48.601c0.694,-4.949 -2.757,-8.96 -7.705,-8.96l-106.036,-0c-4.948,-0 -9.522,4.011 -10.216,8.96c-0.693,4.95 2.757,8.961 7.705,8.961l106.036,-0c4.948,-0 9.523,-4.013 10.216,-8.961Zm-260.078,8.961l106.004,-0c4.948,-0 9.522,-4.011 10.216,-8.961c0.693,-4.949 -2.757,-8.96 -7.705,-8.96l-106.004,-0c-4.95,-0 -9.522,4.011 -10.216,8.96c-0.693,4.948 2.757,8.961 7.705,8.961Zm280.473,-218.482l-249.86,-0c-0.554,-0 -1.106,0.066 -1.652,0.165c-0.178,0.032 -0.352,0.079 -0.528,0.12c-0.369,0.089 -0.733,0.193 -1.092,0.326c-0.185,0.066 -0.366,0.133 -0.545,0.21c-0.38,0.163 -0.747,0.351 -1.107,0.559c-0.125,0.071 -0.253,0.129 -0.373,0.206c-0.47,0.294 -0.918,0.625 -1.34,0.991c-0.1,0.086 -0.187,0.186 -0.286,0.274c-0.311,0.292 -0.612,0.597 -0.891,0.925c-0.129,0.152 -0.248,0.31 -0.37,0.469c-0.222,0.289 -0.423,0.59 -0.616,0.904c-0.112,0.184 -0.225,0.365 -0.327,0.557c-0.046,0.086 -0.104,0.165 -0.149,0.253c-0.142,0.285 -0.243,0.573 -0.353,0.862c-0.056,0.139 -0.125,0.272 -0.173,0.415c-0.181,0.538 -0.307,1.076 -0.388,1.613c-0.007,0.038 -0.023,0.076 -0.028,0.113l-22.535,160.848l-0.001,-0c-0.002,0.014 -0.001,0.027 -0.002,0.038c-0.072,0.541 -0.091,1.084 -0.063,1.625c0.008,0.176 0.038,0.341 0.057,0.513c0.025,0.231 0.034,0.465 0.079,0.695c0.024,0.116 0.07,0.224 0.097,0.339c0.049,0.191 0.104,0.381 0.166,0.568c0.103,0.315 0.227,0.616 0.366,0.908c0.074,0.158 0.143,0.318 0.228,0.47c0.201,0.353 0.431,0.683 0.681,0.994c0.055,0.069 0.098,0.146 0.157,0.212c0.318,0.366 0.675,0.693 1.06,0.989c0.12,0.093 0.253,0.167 0.381,0.253c0.283,0.192 0.575,0.369 0.885,0.521c0.168,0.083 0.337,0.154 0.512,0.224c0.319,0.128 0.647,0.233 0.986,0.321c0.169,0.043 0.329,0.093 0.504,0.126c0.52,0.1 1.055,0.164 1.611,0.164l249.862,0c0.557,0 1.109,-0.064 1.657,-0.164c0.183,-0.034 0.358,-0.083 0.538,-0.126c0.365,-0.088 0.725,-0.192 1.08,-0.321c0.193,-0.07 0.38,-0.141 0.567,-0.222c0.359,-0.154 0.705,-0.335 1.046,-0.529c0.146,-0.082 0.297,-0.154 0.439,-0.245c0.47,-0.298 0.921,-0.627 1.344,-0.995c0.069,-0.059 0.127,-0.127 0.193,-0.188c0.347,-0.319 0.676,-0.656 0.981,-1.016c0.125,-0.149 0.236,-0.305 0.353,-0.459c0.224,-0.295 0.435,-0.6 0.629,-0.919c0.112,-0.186 0.218,-0.373 0.321,-0.565c0.06,-0.114 0.136,-0.22 0.192,-0.338c0.109,-0.23 0.181,-0.463 0.273,-0.694c0.067,-0.174 0.144,-0.339 0.203,-0.516c0.178,-0.541 0.313,-1.082 0.39,-1.622c0.001,-0.003 0.001,-0.007 0.002,-0.011l0.004,-0.019c0.001,-0.004 0.003,-0.007 0.004,-0.011l22.534,-160.846c0.005,-0.038 -0,-0.073 0.005,-0.113c0.069,-0.539 0.094,-1.079 0.064,-1.616c-0.008,-0.137 -0.039,-0.264 -0.052,-0.4c-0.031,-0.292 -0.052,-0.588 -0.114,-0.876c-0.019,-0.092 -0.056,-0.171 -0.078,-0.26c-0.046,-0.187 -0.107,-0.362 -0.166,-0.541c-0.104,-0.319 -0.228,-0.624 -0.37,-0.918c-0.074,-0.158 -0.148,-0.312 -0.232,-0.462c-0.189,-0.33 -0.404,-0.635 -0.637,-0.93c-0.07,-0.088 -0.13,-0.187 -0.204,-0.271c-0.322,-0.364 -0.675,-0.695 -1.062,-0.991c-0.102,-0.077 -0.214,-0.136 -0.32,-0.208c-0.302,-0.204 -0.614,-0.394 -0.946,-0.556c-0.159,-0.078 -0.322,-0.145 -0.49,-0.211c-0.322,-0.131 -0.655,-0.237 -0.999,-0.326c-0.165,-0.041 -0.324,-0.09 -0.496,-0.12c-0.518,-0.099 -1.05,-0.165 -1.606,-0.165Zm-147.129,117.765c0.277,0.256 0.587,0.466 0.895,0.672c0.096,0.065 0.179,0.151 0.279,0.21c0.071,0.043 0.153,0.068 0.226,0.109c0.775,0.434 1.613,0.746 2.498,0.9c0.082,0.014 0.169,0.009 0.251,0.021c0.404,0.058 0.812,0.106 1.227,0.106l0.002,0c0.334,0 0.668,-0.047 1.003,-0.084c0.169,-0.018 0.339,-0.015 0.509,-0.041c0.496,-0.081 0.99,-0.207 1.48,-0.368c0.011,-0.003 0.024,-0.003 0.037,-0.009c1.008,-0.337 1.996,-0.838 2.916,-1.512l0.687,-0.502l18.967,-13.848l67.126,57.432l-196.883,0l83.206,-57.423l15.574,14.337Zm-115.026,33.925l17.352,-123.853l69.454,63.944l-86.806,59.909Zm249.294,-123.86l-17.353,123.858l-70.041,-59.925l87.394,-63.933Zm-141.422,57.236l-0.024,-0.018l-72.901,-67.123l199.52,-0l-111.184,81.335l-15.411,-14.194Zm-110.562,-275.692l333.24,0c27.722,0 47.121,22.506 43.246,50.165l-7.037,50.231l-433.792,0l7.037,-50.229c3.875,-27.661 29.582,-50.167 57.306,-50.167Zm297.138,75.051c13.707,-0 26.426,-11.163 28.348,-24.886c1.922,-13.72 -7.668,-24.885 -21.376,-24.885c-13.727,0 -26.46,11.163 -28.382,24.885c-1.923,13.723 7.682,24.886 21.41,24.886Zm-198.409,-15.923l119.179,-0c4.948,-0 9.522,-4.011 10.216,-8.961c0.693,-4.95 -2.757,-8.96 -7.705,-8.96l-119.18,-0c-4.948,-0 -9.522,4.01 -10.216,8.96c-0.693,4.948 2.758,8.961 7.706,8.961Zm202.87,-15.925c3.828,-0 6.504,3.124 5.966,6.964c-0.538,3.841 -4.089,6.964 -7.917,6.964c-3.846,0 -6.537,-3.123 -5.999,-6.964c0.538,-3.84 4.105,-6.964 7.95,-6.964Z" style="fill:#bbb74c;fill-rule:nonzero;"/></g></svg>