<?xml version="1.0" encoding="UTF-8" standalone="no"?><!DOCTYPE svg PUBLIC "-//W3C//DTD SVG 1.1//EN" "http://www.w3.org/Graphics/SVG/1.1/DTD/svg11.dtd"><svg width="100%" height="100%" viewBox="0 0 2067 2067" version="1.1" xmlns="http://www.w3.org/2000/svg" xmlns:xlink="http://www.w3.org/1999/xlink" xml:space="preserve" xmlns:serif="http://www.serif.com/" style="fill-rule:evenodd;clip-rule:evenodd;stroke-linejoin:round;stroke-miterlimit:2;"><circle cx="1033.33" cy="1033.33" r="1033.33" style="fill:#000035;"/><path d="M1515.42,958.333l-733.334,-445.833c-65.833,-36.667 -148.75,10.417 -148.75,87.5l0,866.667c0,76.666 82.5,124.166 148.75,87.5l733.334,-420.834c68.333,-37.916 68.333,-136.666 -0,-175Zm551.25,75c-0,-570.833 -462.5,-1033.33 -1033.33,-1033.33c-570.833,0 -1033.33,462.5 -1033.33,1033.33c-0,570.834 462.5,1033.33 1033.33,1033.33c570.834,-0 1033.33,-462.5 1033.33,-1033.33Zm-1866.67,0c-0,-460.416 372.917,-833.333 833.333,-833.333c460.417,0 833.334,372.917 833.334,833.333c-0,460.417 -372.917,833.334 -833.334,833.334c-460.416,-0 -833.333,-372.917 -833.333,-833.334Z" style="fill:#bbb74c;fill-rule:nonzero;"/></svg>