<svg viewBox="0 0 2134 1867" xmlns="http://www.w3.org/2000/svg" fill-rule="evenodd" clip-rule="evenodd" stroke-linejoin="round" stroke-miterlimit="2"><path d="M1742.5 605c-22.5-7.5-45-14.583-67.5-21.25 3.75-15.417 7.083-30.833 10.417-46.25 51.25-248.333 17.5-447.917-96.25-513.75-109.584-62.917-288.334 2.5-469.167 160-17.917 15.417-35.417 31.667-52.083 47.917a1258.885 1258.885 0 00-34.584-32.084C843.75 31.25 653.75-39.583 540 26.667 430.833 90 398.333 277.917 444.167 512.917c4.583 23.333 9.583 46.25 15.416 69.583-26.666 7.5-52.916 15.833-77.5 24.583C159.583 684.167 0 805.833 0 931.667c0 130 170 260.416 401.25 339.583 18.75 6.25 37.5 12.5 56.667 17.917-6.25 25-11.667 49.583-16.667 75-43.75 231.25-9.583 414.583 99.583 477.5 112.5 65 301.667-1.667 485.834-162.917 14.583-12.917 29.166-26.25 43.75-40.417 18.333 17.917 37.5 35 56.666 51.667 178.334 153.333 354.584 215.417 463.334 152.5 112.5-65 149.166-262.083 101.666-502.083a1746.476 1746.476 0 00-12.5-56.25c13.334-3.75 26.25-7.917 39.167-12.084 240.417-79.583 414.583-208.333 414.583-340.416 0-126.25-164.166-248.75-390.833-326.667zm-563.75-353.75c155-135 299.583-187.917 365.417-150 70.416 40.417 97.5 203.75 53.333 418.333-2.917 14.167-5.833 27.917-9.583 41.667-92.5-20.833-186.25-35.833-280.417-44.167-54.167-77.5-113.333-151.666-177.5-221.25 16.25-15.416 32.083-30 48.75-44.583zm-482.083 896.667c21.25 36.25 42.916 72.5 65.833 107.916-65-7.083-129.583-17.5-193.333-31.25 18.333-60 41.25-122.083 67.916-185.416 19.167 36.666 38.75 72.916 59.584 108.75zm-126.25-501.25c60-13.334 123.75-24.167 190-32.5-22.084 34.583-43.75 70-64.167 105.833-20.417 35.417-40.417 71.667-59.167 108.333-26.25-62.083-48.333-122.916-66.666-181.666zM684.583 933.75c27.5-57.5 57.5-113.75 89.167-169.167 31.667-55.416 65.833-109.166 101.667-162.083 62.5-4.583 126.25-7.083 191.25-7.083s129.166 2.5 191.25 7.083a2911.788 2911.788 0 01101.25 161.25c32.083 55 62.083 111.25 90.416 168.333a2763.92 2763.92 0 01-90 170c-31.666 55.417-65.416 109.167-100.833 162.5-62.083 4.584-126.667 6.667-192.083 6.667-65.417 0-128.75-2.083-190-5.833a2533.849 2533.849 0 01-102.5-162.5C742.083 1047.5 712.5 991.25 684.583 933.75zm752.5 213.333c21.25-36.666 41.25-73.75 60.834-111.25 26.666 60.417 50 121.667 70.416 184.584-64.583 14.583-130 25.833-195.833 33.333 22.5-35 43.75-70.833 64.583-106.667zm60-318.75C1477.5 791.667 1457.5 755 1436.667 719.167a2708.988 2708.988 0 00-63.75-105c67.083 8.333 131.25 19.583 191.25 33.333-19.167 61.667-41.667 121.667-67.084 180.833zM1067.5 359.583c43.75 47.5 85 97.5 123.333 149.167-82.5-3.75-165.416-3.75-247.916 0C983.75 455 1025.833 405 1067.5 359.583zM584.167 104.167c70-40.834 225.416 17.5 389.166 162.5 10.417 9.166 20.834 19.166 31.667 29.166-64.583 69.584-124.167 143.75-178.75 221.25-94.167 8.334-187.5 22.917-280 43.334-5.417-21.25-10-42.917-14.583-64.584-39.167-201.666-13.334-353.75 52.5-391.666zm-102.084 1098.33c-17.5-5-34.583-10.417-51.666-16.25-88.75-27.917-189.584-72.083-262.5-130-42.084-29.167-70.417-74.167-78.334-124.583 0-76.25 131.667-173.75 321.667-240 23.75-8.334 47.917-15.834 72.083-22.917 28.334 90.417 62.5 179.167 102.084 265-40 87.083-74.584 177.083-103.334 268.75zm485.834 408.333c-68.75 62.917-148.334 112.917-235 147.084-46.25 22.083-99.584 24.166-147.084 5.416-66.25-38.333-93.75-185.416-56.25-383.333 4.584-23.333 9.584-46.667 15.417-69.583 93.333 20 187.5 33.75 282.917 40.833 55 77.917 115.416 152.5 180 222.5-13.334 12.917-26.667 25.417-40 37.083zM1070 1509.58c-42.5-45.833-85-96.666-126.25-151.25 40 1.667 81.25 2.5 122.917 2.5 42.916 0 85-.833 126.666-2.916C1155 1410.83 1113.75 1461.247 1070 1509.58zm544.583 125c-3.75 50.834-28.75 98.334-68.75 130.417-66.25 38.333-207.5-11.667-360-142.5-17.5-15-35-31.25-52.916-47.917 63.75-70.416 122.5-145 175.833-223.333a2054.051 2054.051 0 00284.167-43.75c4.166 17.083 7.916 34.167 11.25 50.833 20.416 90 23.75 183.75 10.416 276.25zm75.834-447.916c-11.667 3.75-23.334 7.5-35.417 10.833-29.167-90.833-65-179.583-106.25-265.833 40-85 73.75-172.5 102.083-262.084 21.667 6.25 42.5 12.917 62.5 19.584C1907.5 755.83 2043.75 854.997 2043.75 930.83c0 81.667-145.417 187.084-353.333 255.834zm-623.75-62.5c105.416 0 190.833-85.417 190.833-190.834 0-105.416-85.417-190.833-190.833-190.833-105.417 0-190.834 85.417-190.834 190.833 0 105.417 85.417 190.834 190.834 190.834z" fill="#bbb74c" fill-rule="nonzero"/></svg>