<?xml version="1.0" encoding="UTF-8" standalone="no"?><!DOCTYPE svg PUBLIC "-//W3C//DTD SVG 1.1//EN" "http://www.w3.org/Graphics/SVG/1.1/DTD/svg11.dtd"><svg width="100%" height="100%" viewBox="0 0 2067 2067" version="1.1" xmlns="http://www.w3.org/2000/svg" xmlns:xlink="http://www.w3.org/1999/xlink" xml:space="preserve" xmlns:serif="http://www.serif.com/" style="fill-rule:evenodd;clip-rule:evenodd;stroke-linejoin:round;stroke-miterlimit:2;"><circle cx="1033.33" cy="1033.33" r="1033.33" style="fill:#000035;"/><path d="M1111.21,1111.21l-155.75,-155.75l-297.125,452.875l452.875,-297.125Zm-77.875,-1111.21c-570.833,0 -1033.33,462.5 -1033.33,1033.33c0,570.834 462.5,1033.33 1033.33,1033.33c570.834,-0 1033.33,-462.5 1033.33,-1033.33c-0,-570.833 -462.5,-1033.33 -1033.33,-1033.33Zm649.375,728.292l61.584,-25.542c4.037,-1.669 8.363,-2.527 12.732,-2.527c13.467,-0 25.669,8.162 30.809,20.61c1.683,4.052 2.548,8.396 2.548,12.782c0,13.46 -8.152,25.656 -20.589,30.802l-61.459,25.458c-16.892,6.991 -36.544,-1.152 -43.541,-18.042c-7.006,-16.858 1.075,-36.496 17.916,-43.541Zm-405.916,-369.959l25.5,-61.583c7.045,-16.841 26.683,-24.922 43.541,-17.917c16.89,6.997 25.033,26.65 18.042,43.542l-25.542,61.583c-6.997,16.89 -26.649,25.033 -43.541,18.042c-12.435,-5.147 -20.584,-17.341 -20.584,-30.799c-0,-4.418 0.878,-8.792 2.584,-12.868Zm-243.459,-141.666c18.286,-0 33.334,15.047 33.334,33.333l-0,66.667c-0,18.286 -15.048,33.333 -33.334,33.333c-18.286,-0 -33.333,-15.047 -33.333,-33.333l-0,-66.667c-0,-18.286 15.047,-33.333 33.333,-33.333Zm-312.5,62.166c4.052,-1.682 8.396,-2.548 12.782,-2.548c13.46,0 25.656,8.153 30.802,20.59l25.458,61.458c1.84,4.21 2.79,8.756 2.79,13.35c0,18.287 -15.047,33.334 -33.333,33.334c-13.691,-0 -26.05,-8.435 -31.04,-21.184l-25.542,-61.583c-6.904,-16.87 1.245,-36.435 18.083,-43.417Zm-264.916,177.042c12.928,-12.92 34.196,-12.92 47.125,-0l46.958,47.125c12.839,12.916 12.839,34.084 -0,47c-12.929,12.92 -34.196,12.92 -47.125,-0l-47.125,-47.125c-12.805,-12.95 -12.748,-34.119 0.125,-47l0.042,-0Zm-239.25,577.458c-0,-18.286 15.047,-33.333 33.333,-33.333l66.667,0c18.286,0 33.333,15.047 33.333,33.333c-0,18.286 -15.047,33.334 -33.333,33.334l-66.667,-0c-18.286,-0 -33.333,-15.048 -33.333,-33.334Zm167.291,305.042l-61.583,25.542c-4.037,1.668 -8.363,2.527 -12.732,2.527c-13.468,-0 -25.669,-8.162 -30.81,-20.611c-1.682,-4.051 -2.548,-8.395 -2.548,-12.782c0,-13.46 8.153,-25.655 20.59,-30.801l61.458,-25.458c16.892,-6.991 36.545,1.152 43.542,18.041c7.005,16.859 -1.075,36.496 -17.917,43.542Zm18.042,-566.667c-5.111,12.509 -17.344,20.726 -30.857,20.726c-4.397,0 -8.751,-0.869 -12.81,-2.559l-61.583,-25.5c-16.841,-7.046 -24.922,-26.683 -17.917,-43.542c6.997,-16.889 26.65,-25.032 43.542,-18.041l61.583,25.541c16.867,6.998 25.005,26.619 18.042,43.5l-0,-0.125Zm387.875,936.625l-25.5,61.584c-5.148,12.441 -17.348,20.596 -30.812,20.596c-18.294,-0 -33.347,-15.053 -33.347,-33.346c0,-4.375 0.861,-8.708 2.534,-12.75l25.542,-61.584c4.99,-12.749 17.349,-21.183 31.04,-21.183c18.286,-0 33.333,15.047 33.333,33.333c0,4.595 -0.95,9.14 -2.79,13.35Zm276.792,108.334c-0,18.286 -15.048,33.333 -33.334,33.333c-18.286,0 -33.333,-15.047 -33.333,-33.333l-0,-66.667c-0,-18.286 15.047,-33.333 33.333,-33.333c18.286,-0 33.334,15.047 33.334,33.333l-0,66.667Zm279.166,-28.834c-4.051,1.683 -8.395,2.548 -12.782,2.548c-13.46,0 -25.655,-8.152 -30.801,-20.589l-25.458,-61.459c-6.991,-16.892 1.152,-36.544 18.041,-43.541c16.892,-6.991 36.545,1.152 43.542,18.041l25.542,61.584c6.904,16.87 -1.245,36.435 -18.084,43.416Zm264.917,-177.041c-12.929,12.92 -34.196,12.92 -47.125,-0l-46.958,-47.125c-12.839,-12.916 -12.839,-34.085 -0,-47c12.928,-12.921 34.196,-12.921 47.125,-0l47.125,47.125c12.804,12.949 12.748,34.118 -0.125,47l-0.042,-0Zm-451.375,-451.417l-732.958,480.875l480.875,-732.958l732.958,-480.875l-480.875,732.958Zm628.458,186.458c-6.997,16.89 -26.649,25.033 -43.541,18.042l-61.584,-25.542c-16.889,-6.997 -25.032,-26.649 -18.041,-43.541c5.147,-12.435 17.341,-20.584 30.798,-20.584c4.418,-0 8.793,0.878 12.868,2.584l61.584,25.5c16.841,7.045 24.922,26.683 17.916,43.541Zm28.834,-279.166l-66.667,-0c-18.286,-0 -33.333,-15.048 -33.333,-33.334c-0,-18.286 15.047,-33.333 33.333,-33.333l66.667,0c18.286,0 33.333,15.047 33.333,33.333c0,18.286 -15.047,33.334 -33.333,33.334Z" style="fill:#bbb74c;fill-rule:nonzero;"/></svg>