<svg xmlns="http://www.w3.org/2000/svg" viewBox="0 0 94 112" fill="rgb(187,183,76)" fill-rule="evenodd" clip-rule="evenodd" stroke-linejoin="round" stroke-miterlimit="2"><path d="M87.254 14.813c-10.4-14.88-30.94-19.29-45.79-9.83l-26.08 16.62a29.913 29.913 0 00-13.52 20 31.533 31.533 0 003.1 20.24 29.939 29.939 0 00-4.47 11.18 31.873 31.873 0 005.45 24.12c10.4 14.88 30.94 19.29 45.79 9.83l26.08-16.55a30.011 30.011 0 0013.52-20 31.525 31.525 0 00-3.11-20.23 30.145 30.145 0 004.48-11.18 31.909 31.909 0 00-5.45-24.12v-.08zm-48.34 83.77c-8.39 2.177-17.3-1.128-22.24-8.25a19.145 19.145 0 01-3.27-14.5c.148-.817.355-1.623.62-2.41l.49-1.5 1.34 1a33.763 33.763 0 0010.17 5.06l1 .29-.09 1a5.9 5.9 0 001.09 3.85 6.262 6.262 0 006.7 2.48 5.854 5.854 0 001.6-.7l26.04-16.62a5.42 5.42 0 002.45-3.64 5.775 5.775 0 00-1-4.37 6.262 6.262 0 00-6.7-2.48 5.71 5.71 0 00-1.6.7l-10 6.35a19.114 19.114 0 01-5.29 2.32c-8.376 2.164-17.264-1.135-22.2-8.24a19.165 19.165 0 01-3.25-14.5 18.006 18.006 0 018.13-12.06l26.12-16.62a19.051 19.051 0 015.26-2.32c8.387-2.179 17.295 1.127 22.23 8.25a19.146 19.146 0 013.28 14.5 20.121 20.121 0 01-.62 2.43l-.5 1.5-1.33-1a33.783 33.783 0 00-10.2-5.1l-1-.29.09-1a5.862 5.862 0 00-1.06-3.88 6.242 6.242 0 00-6.66-2.41 5.71 5.71 0 00-1.6.7l-26.09 16.59a5.45 5.45 0 00-2.45 3.63 5.841 5.841 0 001 4.38 6.262 6.262 0 006.65 2.48 5.992 5.992 0 001.6-.7l10-6.34a18.61 18.61 0 015.3-2.33c8.385-2.184 17.294 1.118 22.23 8.24a19.169 19.169 0 013.28 14.5 18.006 18.006 0 01-8.13 12.06l-26.09 16.62a19.2 19.2 0 01-5.3 2.33z" fill-rule="nonzero"/></svg>