<svg viewBox="0 0 389 467" xmlns="http://www.w3.org/2000/svg" fill-rule="evenodd" clip-rule="evenodd" stroke-linejoin="round" stroke-miterlimit="2"><path d="M363.558 61.721c-43.333-62-128.916-80.375-190.791-40.959L64.1 90.013a124.688 124.688 0 00-56.333 83.333 131.408 131.408 0 0012.916 84.333 124.768 124.768 0 00-18.625 46.583 132.855 132.855 0 0022.709 100.501c43.333 62 128.916 80.375 190.791 40.958l108.667-68.958a125.1 125.1 0 0056.333-83.334 131.371 131.371 0 00-12.958-84.291 125.63 125.63 0 0018.667-46.584 133.001 133.001 0 00-22.709-100.5v-.333zM162.142 410.763c-34.959 9.07-72.084-4.7-92.667-34.375a79.803 79.803 0 01-13.625-60.417 71.373 71.373 0 012.583-10.042l2.042-6.25 5.583 4.167a140.69 140.69 0 0042.375 21.083l4.167 1.209-.375 4.166a24.585 24.585 0 004.542 16.042c6.221 8.915 17.39 13.049 27.916 10.333a24.378 24.378 0 006.667-2.916l108.5-69.25a22.593 22.593 0 0010.208-15.167 24.069 24.069 0 00-4.166-18.208c-6.221-8.916-17.391-13.05-27.917-10.334a23.816 23.816 0 00-6.667 2.917l-41.666 26.458a79.656 79.656 0 01-22.042 9.667c-34.9 9.017-71.933-4.729-92.5-34.333a79.889 79.889 0 01-13.542-60.417 75.062 75.062 0 0133.875-50.25l108.834-69.25a79.383 79.383 0 0121.916-9.667c34.946-9.079 72.063 4.696 92.625 34.375a79.802 79.802 0 0113.667 60.417 84.056 84.056 0 01-2.583 10.125l-2.084 6.25-5.541-4.167a140.783 140.783 0 00-42.5-21.25l-4.167-1.208.375-4.167a24.43 24.43 0 00-4.417-16.166c-6.257-8.76-17.335-12.769-27.75-10.042a23.752 23.752 0 00-6.666 2.917l-108.709 69.125a22.716 22.716 0 00-10.208 15.125 24.348 24.348 0 004.167 18.25c6.19 8.831 17.246 12.955 27.708 10.333a24.973 24.973 0 006.667-2.917l41.666-26.417a77.545 77.545 0 0122.084-9.708c34.937-9.1 72.058 4.659 92.625 34.334a79.897 79.897 0 0113.666 60.416 75.055 75.055 0 01-33.875 50.25l-108.708 69.25a79.985 79.985 0 01-22.083 9.708z" fill="#bbb74c" fill-rule="nonzero"/></svg>